<svg id="svg" version="1.1" xmlns="http://www.w3.org/2000/svg" xmlns:xlink="http://www.w3.org/1999/xlink" width="400" height="400" viewBox="0, 0, 400,400"><g id="svgg"><path id="path0" d="M23.842 51.895 C 21.059 52.003,20.068 52.203,19.288 52.816 C 18.740 53.247,17.901 53.600,17.424 53.600 C 16.946 53.600,15.945 54.050,15.200 54.600 C 14.455 55.150,13.683 55.600,13.486 55.600 C 12.489 55.600,6.727 61.008,5.787 62.824 C 5.481 63.418,4.976 64.000,4.665 64.120 C 4.355 64.239,3.981 64.976,3.834 65.757 C 3.688 66.539,3.310 67.322,2.995 67.499 C 2.655 67.689,2.263 68.951,2.028 70.610 C 1.746 72.610,1.403 73.588,0.817 74.064 L 0.000 74.728 0.000 178.400 L 0.000 282.072 0.825 282.740 C 1.440 283.238,1.745 284.155,2.018 286.332 C 2.254 288.215,2.672 289.620,3.192 290.281 C 3.637 290.846,4.000 291.635,4.000 292.034 C 4.000 292.433,4.244 292.904,4.542 293.080 C 4.839 293.256,5.303 293.819,5.572 294.330 C 6.508 296.113,9.671 299.409,11.206 300.203 C 11.863 300.543,12.400 300.984,12.400 301.183 C 12.400 301.383,12.805 301.671,13.300 301.823 C 13.795 301.975,14.522 302.437,14.916 302.850 C 15.309 303.262,16.140 303.600,16.762 303.600 C 17.383 303.600,18.407 304.005,19.036 304.500 L 20.180 305.400 120.662 305.400 C 216.444 305.400,221.177 305.367,221.871 304.688 C 222.272 304.297,223.168 303.457,223.862 302.821 C 227.143 299.817,226.845 293.855,223.233 290.242 L 221.191 288.200 123.520 288.094 C 40.265 288.003,25.757 287.904,25.225 287.425 C 24.881 287.115,24.091 286.735,23.469 286.580 C 22.792 286.411,21.708 285.500,20.769 284.313 L 19.200 282.328 19.200 206.044 C 19.200 147.245,19.310 129.650,19.680 129.280 C 20.667 128.293,353.260 128.618,354.519 129.607 L 355.545 130.415 355.673 141.978 L 355.800 153.542 357.968 155.535 C 360.287 157.665,361.210 158.000,364.772 158.000 C 366.568 158.000,367.329 157.790,368.400 157.000 C 369.145 156.450,369.995 156.000,370.288 156.000 C 370.580 156.000,371.008 155.505,371.238 154.901 C 371.468 154.296,371.958 153.467,372.328 153.059 C 372.948 152.373,373.000 149.215,373.000 112.258 L 373.000 72.200 372.100 70.753 C 371.605 69.957,371.200 68.867,371.200 68.330 C 371.200 67.794,370.750 66.745,370.200 66.000 C 369.650 65.255,369.200 64.508,369.200 64.340 C 369.200 63.366,363.787 57.200,362.932 57.200 C 362.693 57.200,362.265 56.920,361.981 56.577 C 361.696 56.234,360.864 55.703,360.132 55.397 C 359.399 55.091,358.800 54.660,358.800 54.439 C 358.800 54.217,358.125 53.916,357.300 53.769 C 356.475 53.623,355.170 53.120,354.400 52.651 L 353.000 51.800 190.200 51.778 C 100.660 51.767,25.799 51.819,23.842 51.895 M348.696 70.000 C 349.516 70.440,350.389 70.800,350.635 70.800 C 351.836 70.800,353.725 73.402,354.661 76.346 C 355.971 80.465,355.992 108.581,354.686 109.886 C 353.835 110.736,21.557 111.233,19.976 110.387 C 19.226 109.986,19.200 109.384,19.200 92.417 L 19.200 74.862 21.048 72.831 C 22.065 71.714,23.190 70.799,23.548 70.797 C 23.907 70.796,24.740 70.437,25.400 70.000 C 27.302 68.741,346.346 68.741,348.696 70.000 M64.803 158.440 C 63.404 158.713,62.565 159.244,61.016 160.834 L 59.026 162.877 59.013 166.605 C 59.002 169.754,59.128 170.508,59.827 171.466 C 60.282 172.090,60.771 172.915,60.914 173.300 C 61.058 173.685,61.438 174.000,61.759 174.000 C 62.080 174.000,62.658 174.315,63.043 174.700 C 63.703 175.360,67.345 175.406,126.511 175.504 L 189.280 175.607 191.242 173.965 C 192.321 173.061,193.313 171.887,193.447 171.356 C 193.580 170.824,193.958 170.240,194.286 170.056 C 195.338 169.467,195.487 164.699,194.482 163.762 C 194.033 163.343,193.541 162.505,193.389 161.900 C 193.237 161.295,192.960 160.800,192.773 160.800 C 192.586 160.800,192.020 160.359,191.516 159.821 C 190.849 159.108,189.892 158.728,188.000 158.424 C 184.770 157.905,67.457 157.920,64.803 158.440 M316.055 171.067 C 314.655 171.163,313.103 171.507,312.606 171.833 C 312.109 172.159,310.664 172.594,309.396 172.801 C 308.127 173.007,306.799 173.431,306.445 173.744 C 306.090 174.056,305.170 174.444,304.400 174.608 C 303.630 174.771,302.571 175.241,302.046 175.652 C 301.521 176.063,300.673 176.400,300.160 176.400 C 299.648 176.400,299.042 176.748,298.814 177.173 C 298.587 177.598,298.024 178.066,297.563 178.212 C 294.351 179.231,281.200 192.044,281.200 194.154 C 281.200 194.441,280.856 194.987,280.436 195.367 C 280.016 195.748,279.555 196.526,279.411 197.098 C 279.268 197.669,278.802 198.580,278.375 199.122 C 277.949 199.664,277.600 200.506,277.600 200.992 C 277.600 201.478,277.240 202.202,276.800 202.600 C 276.280 203.071,276.000 203.832,276.000 204.777 C 276.000 205.577,275.630 206.944,275.178 207.815 C 274.022 210.042,273.621 215.987,273.609 231.056 C 273.597 247.042,274.824 245.338,263.136 245.600 C 253.483 245.816,251.754 246.242,250.960 248.600 C 250.811 249.040,250.355 249.829,249.945 250.354 C 249.228 251.272,249.200 253.035,249.200 296.776 L 249.200 342.245 250.200 343.600 C 250.750 344.345,251.200 345.190,251.200 345.478 C 251.200 345.765,251.408 346.000,251.662 346.000 C 251.916 346.000,252.771 346.495,253.562 347.100 L 255.000 348.200 324.211 348.200 L 393.421 348.200 395.364 346.608 C 396.521 345.660,397.605 344.321,398.043 343.299 C 398.448 342.355,399.054 341.478,399.389 341.349 C 400.282 341.006,400.325 252.400,399.433 252.400 C 399.121 252.400,398.557 251.589,398.178 250.598 C 397.770 249.529,396.764 248.147,395.704 247.198 L 393.918 245.600 386.009 245.600 C 377.345 245.600,375.813 245.436,375.326 244.455 C 375.147 244.095,374.910 236.690,374.800 228.000 C 374.624 214.125,374.519 212.078,373.932 211.200 C 373.565 210.650,373.138 209.120,372.984 207.800 C 372.830 206.480,372.466 205.127,372.175 204.794 C 371.884 204.461,371.472 203.413,371.259 202.465 C 371.046 201.518,370.607 200.441,370.283 200.071 C 369.960 199.702,369.558 198.953,369.391 198.408 C 369.224 197.862,368.791 196.962,368.428 196.408 C 368.065 195.853,367.595 195.106,367.384 194.746 C 366.213 192.753,363.597 189.177,362.201 187.661 C 358.717 183.878,354.418 180.004,353.700 180.002 C 353.425 180.001,352.859 179.659,352.442 179.242 C 351.606 178.406,351.070 178.094,346.702 175.900 C 345.060 175.075,343.447 174.400,343.119 174.400 C 342.791 174.400,342.107 174.040,341.600 173.600 C 341.042 173.116,340.103 172.800,339.223 172.800 C 338.424 172.800,337.056 172.436,336.185 171.990 C 334.547 171.153,322.741 170.612,316.055 171.067 M329.483 189.003 C 329.957 189.335,331.432 189.720,332.761 189.859 C 334.365 190.027,335.403 190.362,335.850 190.856 C 336.221 191.265,337.008 191.600,337.600 191.600 C 338.192 191.600,338.998 191.955,339.391 192.390 C 339.784 192.824,340.460 193.292,340.894 193.430 C 343.888 194.380,351.672 202.415,352.587 205.500 C 352.734 205.995,353.015 206.400,353.212 206.400 C 353.408 206.400,353.773 207.165,354.022 208.100 C 354.271 209.035,354.738 210.095,355.060 210.457 C 355.392 210.828,355.784 212.484,355.964 214.273 C 356.139 216.011,356.489 217.819,356.741 218.290 C 357.715 220.110,357.350 243.188,356.330 244.274 L 355.461 245.200 323.979 245.200 C 295.175 245.200,292.451 245.144,291.949 244.538 C 291.062 243.469,291.152 216.259,292.048 214.600 C 292.404 213.940,292.818 212.560,292.968 211.533 C 293.117 210.506,293.489 209.458,293.794 209.205 C 294.099 208.952,294.463 208.226,294.602 207.591 C 294.741 206.957,295.178 206.024,295.573 205.519 C 295.967 205.013,296.417 204.195,296.572 203.700 C 296.727 203.204,297.202 202.613,297.627 202.386 C 298.052 202.158,298.400 201.793,298.400 201.575 C 298.400 200.715,305.878 193.914,307.460 193.335 C 307.867 193.186,308.629 192.734,309.154 192.332 C 309.679 191.929,310.506 191.600,310.993 191.600 C 311.479 191.600,312.273 191.257,312.757 190.837 C 313.277 190.386,314.570 189.965,315.918 189.807 C 317.173 189.661,318.650 189.290,319.200 188.984 C 320.654 188.176,328.322 188.190,329.483 189.003 M66.380 193.958 C 59.910 194.886,57.825 204.457,63.029 209.338 L 65.000 211.186 127.917 211.193 L 190.835 211.200 193.112 209.011 L 195.390 206.823 195.395 202.616 L 195.400 198.409 193.096 196.105 L 190.791 193.800 129.496 193.749 C 95.783 193.720,67.381 193.814,66.380 193.958 M67.400 229.014 C 66.740 229.317,65.796 229.572,65.301 229.582 C 59.530 229.698,58.300 242.533,63.800 245.241 C 64.240 245.457,65.050 245.894,65.600 246.211 C 66.443 246.698,70.654 246.788,92.400 246.788 C 114.146 246.788,118.357 246.698,119.200 246.211 C 119.750 245.894,120.627 245.443,121.149 245.208 C 122.483 244.610,123.654 242.996,124.473 240.628 C 126.209 235.607,123.838 230.955,118.692 229.281 C 115.284 228.173,69.755 227.936,67.400 229.014 M380.171 263.429 C 381.124 264.381,381.130 328.552,380.177 329.911 L 379.555 330.800 324.213 330.800 L 268.871 330.800 267.836 329.569 L 266.800 328.339 266.800 297.195 C 266.800 265.591,266.853 264.395,268.294 263.300 C 269.408 262.454,379.323 262.581,380.171 263.429 " stroke="none" fill="#070707" fill-rule="evenodd"></path><path id="path1" d="M-0.000 35.033 C -0.000 62.828,0.103 70.032,0.499 69.900 C 0.773 69.809,1.104 69.075,1.235 68.268 C 1.366 67.462,1.772 66.473,2.137 66.070 C 2.502 65.667,2.800 65.157,2.800 64.937 C 2.800 63.691,8.909 56.400,9.953 56.400 C 10.212 56.400,10.522 56.146,10.641 55.837 C 10.760 55.527,11.422 55.039,12.112 54.754 C 12.801 54.468,13.688 53.912,14.083 53.517 C 14.477 53.123,15.094 52.800,15.453 52.800 C 15.812 52.800,16.667 52.455,17.353 52.032 C 20.401 50.156,14.607 50.218,187.000 50.216 C 361.915 50.214,353.958 50.124,356.828 52.135 C 357.351 52.501,358.034 52.800,358.348 52.800 C 359.066 52.800,362.648 55.164,364.375 56.777 C 365.095 57.450,365.851 58.000,366.055 58.000 C 366.258 58.000,366.530 58.273,366.658 58.606 C 366.786 58.939,367.420 59.779,368.068 60.473 C 369.639 62.154,372.000 65.742,372.000 66.447 C 372.000 66.758,372.359 67.681,372.797 68.498 C 374.383 71.458,374.537 75.027,374.684 112.319 C 374.839 151.730,374.798 152.541,372.489 155.435 C 371.890 156.186,371.291 156.800,371.158 156.800 C 371.026 156.800,370.431 157.250,369.838 157.800 C 369.244 158.350,368.376 158.800,367.908 158.800 C 367.440 158.800,366.482 159.008,365.781 159.261 C 364.204 159.832,359.787 158.982,358.702 157.900 C 358.316 157.515,357.854 157.200,357.675 157.200 C 357.245 157.200,355.662 155.035,354.518 152.884 C 353.629 151.212,353.600 150.834,353.600 140.779 L 353.600 130.400 186.796 130.400 L 19.992 130.400 20.096 205.758 C 20.194 276.882,20.239 281.160,20.900 281.890 C 21.285 282.315,21.600 282.829,21.600 283.033 C 21.600 283.236,22.171 283.942,22.870 284.601 L 24.140 285.800 121.570 286.000 C 213.293 286.188,219.070 286.241,220.200 286.898 C 220.860 287.281,221.670 287.596,222.000 287.598 C 222.804 287.601,226.400 291.131,226.400 291.916 C 226.400 292.258,226.696 292.864,227.058 293.264 C 228.311 294.648,228.075 300.800,226.769 300.800 C 226.566 300.800,226.400 301.148,226.400 301.573 C 226.400 302.568,222.914 305.967,221.604 306.250 C 221.052 306.369,219.803 306.722,218.829 307.033 C 216.815 307.678,29.256 307.849,25.400 307.210 C 19.801 306.283,18.227 305.909,16.881 305.187 C 16.073 304.754,15.103 304.400,14.726 304.400 C 14.348 304.400,13.896 304.154,13.720 303.854 C 13.544 303.554,12.860 303.028,12.200 302.685 C 11.540 302.341,10.197 301.327,9.216 300.430 C 8.235 299.534,7.290 298.800,7.116 298.800 C 6.942 298.800,6.800 298.596,6.800 298.346 C 6.800 298.096,6.395 297.480,5.900 296.977 C 4.488 295.541,3.341 293.890,2.998 292.802 C 2.825 292.252,2.438 291.622,2.137 291.402 C 1.836 291.181,1.455 290.204,1.290 289.231 C 1.124 288.259,0.766 287.389,0.494 287.298 C 0.103 287.168,0.000 298.945,0.000 343.567 L 0.000 400.000 200.000 400.000 L 400.000 400.000 400.000 372.000 C 400.000 344.453,399.884 341.917,398.773 345.105 C 398.248 346.612,395.952 348.358,393.464 349.142 C 391.117 349.882,257.548 350.375,256.644 349.648 C 256.400 349.451,255.426 349.163,254.479 349.007 C 253.451 348.837,252.567 348.416,252.283 347.961 C 252.022 347.543,251.585 347.200,251.314 347.200 C 251.043 347.200,250.550 346.676,250.219 346.036 C 249.888 345.396,249.407 344.802,249.150 344.717 C 247.819 344.273,247.643 338.831,247.621 297.427 C 247.599 255.180,247.759 250.241,249.191 248.809 C 249.559 248.441,249.978 247.834,250.121 247.460 C 250.265 247.087,250.701 246.662,251.091 246.516 C 251.481 246.369,252.000 245.982,252.245 245.656 C 253.223 244.351,256.067 243.851,263.800 243.624 L 271.400 243.400 271.618 229.000 C 271.778 218.454,271.976 214.279,272.358 213.400 C 272.645 212.740,273.038 210.974,273.232 209.475 C 273.426 207.976,273.853 206.266,274.181 205.675 C 274.509 205.084,274.963 203.856,275.191 202.947 C 275.419 202.037,275.874 201.070,276.203 200.798 C 276.531 200.525,276.800 199.898,276.800 199.405 C 276.800 198.912,277.127 198.079,277.527 197.554 C 277.927 197.029,278.489 196.015,278.776 195.300 C 279.062 194.585,279.433 194.000,279.600 194.000 C 279.767 194.000,280.121 193.473,280.388 192.829 C 280.655 192.185,281.127 191.560,281.437 191.441 C 281.746 191.322,282.000 191.019,282.000 190.767 C 282.000 189.675,290.201 181.056,291.700 180.572 C 292.085 180.448,292.400 180.169,292.400 179.952 C 292.400 179.736,292.940 179.370,293.600 179.140 C 294.260 178.910,294.800 178.576,294.800 178.399 C 294.800 178.096,297.351 176.444,299.600 175.291 C 300.150 175.008,301.050 174.515,301.600 174.195 C 302.150 173.874,302.932 173.609,303.337 173.606 C 303.742 173.603,304.531 173.240,305.091 172.800 C 305.650 172.360,306.581 172.000,307.160 172.000 C 307.738 172.000,308.876 171.644,309.688 171.209 C 310.520 170.763,312.612 170.252,314.482 170.039 C 316.307 169.831,319.279 169.444,321.088 169.180 C 323.626 168.809,325.039 168.807,327.288 169.172 C 328.889 169.431,331.788 169.820,333.729 170.037 C 335.788 170.266,337.869 170.757,338.723 171.215 C 339.529 171.647,340.662 172.000,341.240 172.000 C 341.819 172.000,342.721 172.333,343.246 172.739 C 343.771 173.145,344.740 173.609,345.400 173.770 C 346.060 173.931,346.870 174.296,347.200 174.581 C 347.530 174.866,348.475 175.316,349.300 175.580 C 350.125 175.845,350.800 176.226,350.800 176.426 C 350.800 176.626,351.385 177.034,352.100 177.333 C 352.815 177.632,353.647 178.174,353.949 178.538 C 354.251 178.902,354.740 179.200,355.035 179.200 C 355.330 179.200,355.765 179.560,356.000 180.000 C 356.235 180.440,356.634 180.800,356.886 180.800 C 357.315 180.800,364.168 187.711,365.703 189.692 C 367.521 192.039,368.400 193.398,368.400 193.862 C 368.400 194.141,368.745 194.691,369.168 195.084 C 369.590 195.478,370.057 196.288,370.207 196.884 C 370.356 197.480,370.730 198.176,371.036 198.430 C 371.343 198.685,371.792 199.637,372.034 200.547 C 372.276 201.456,372.727 202.483,373.035 202.829 C 373.344 203.175,373.715 204.345,373.861 205.429 C 374.007 206.513,374.382 207.794,374.694 208.276 C 375.010 208.766,375.431 211.063,375.645 213.476 C 375.857 215.854,376.203 218.778,376.415 219.973 C 376.627 221.169,376.800 226.758,376.800 232.393 C 376.800 239.830,376.932 242.772,377.280 243.120 C 377.618 243.458,379.902 243.600,385.000 243.600 C 388.982 243.600,392.411 243.758,392.620 243.952 C 392.829 244.145,393.630 244.505,394.400 244.752 C 396.036 245.277,398.800 247.682,398.800 248.580 C 398.800 248.921,399.070 249.200,399.400 249.200 C 399.932 249.200,400.000 235.089,400.000 124.600 L 400.000 0.000 200.000 0.000 L 0.000 0.000 -0.000 35.033 M25.211 71.493 C 23.472 71.820,21.594 73.713,20.417 76.326 C 19.969 77.320,19.818 107.078,20.252 108.700 L 20.493 109.600 186.829 109.600 L 353.164 109.600 353.408 108.300 C 353.542 107.585,353.595 99.847,353.526 91.105 L 353.400 75.210 351.495 73.305 L 349.589 71.400 187.895 71.353 C 98.963 71.328,25.755 71.390,25.211 71.493 M188.904 156.900 C 189.491 157.285,190.242 157.600,190.572 157.600 C 191.326 157.600,193.441 159.648,194.884 161.776 C 196.290 163.849,196.532 169.583,195.284 171.246 C 194.890 171.771,194.354 172.695,194.093 173.300 C 193.831 173.905,193.440 174.400,193.224 174.400 C 193.008 174.400,192.492 174.764,192.078 175.208 C 189.791 177.664,191.483 177.602,126.705 177.577 C 62.995 177.552,63.332 177.563,61.792 175.457 C 61.528 175.095,61.113 174.800,60.870 174.800 C 60.627 174.800,60.212 174.395,59.949 173.900 C 59.685 173.405,59.236 172.820,58.951 172.600 C 55.424 169.881,58.819 157.600,63.098 157.600 C 63.540 157.600,64.117 157.341,64.380 157.024 C 65.158 156.086,64.224 156.099,127.218 156.151 C 184.227 156.197,187.899 156.242,188.904 156.900 M317.400 190.740 C 316.300 190.895,314.950 191.311,314.400 191.663 C 313.850 192.015,312.800 192.413,312.068 192.548 C 311.335 192.683,310.275 193.155,309.714 193.596 C 309.152 194.038,308.474 194.400,308.208 194.400 C 307.942 194.400,307.398 194.760,307.000 195.200 C 306.602 195.640,306.066 196.000,305.810 196.000 C 305.554 196.000,304.976 196.405,304.525 196.900 C 304.074 197.395,303.056 198.340,302.261 199.000 C 301.467 199.660,300.813 200.382,300.809 200.604 C 300.804 200.826,300.440 201.232,300.000 201.507 C 299.560 201.782,299.200 202.253,299.200 202.554 C 299.200 202.856,298.902 203.349,298.538 203.651 C 298.174 203.953,297.632 204.785,297.333 205.500 C 297.034 206.215,296.626 206.800,296.426 206.800 C 296.227 206.800,295.940 207.385,295.788 208.100 C 295.637 208.815,295.186 210.030,294.786 210.800 C 294.386 211.570,293.938 212.740,293.791 213.400 C 293.321 215.517,292.962 242.572,293.400 242.894 C 293.620 243.056,307.629 243.191,324.530 243.194 L 355.261 243.200 355.109 228.500 C 354.962 214.256,354.930 213.751,354.078 212.215 C 353.595 211.344,353.200 210.157,353.200 209.577 C 353.200 208.998,352.840 208.198,352.400 207.800 C 351.960 207.402,351.600 206.770,351.600 206.396 C 351.600 206.023,351.195 205.254,350.700 204.689 C 350.205 204.124,349.350 203.004,348.800 202.201 C 347.318 200.035,343.694 196.536,342.364 195.985 C 341.724 195.720,341.200 195.347,341.200 195.157 C 341.200 194.966,340.564 194.545,339.786 194.220 C 339.008 193.895,338.095 193.353,337.757 193.015 C 337.419 192.677,336.748 192.400,336.266 192.400 C 335.783 192.400,334.680 192.020,333.814 191.556 C 332.102 190.639,321.751 190.124,317.400 190.740 M189.989 192.500 C 190.533 192.885,191.260 193.200,191.606 193.200 C 195.156 193.200,198.988 202.496,196.800 205.800 C 196.363 206.460,196.004 207.287,196.003 207.638 C 195.998 208.719,192.373 211.671,190.208 212.358 C 187.192 213.314,68.936 213.336,65.701 212.380 C 63.578 211.753,60.000 208.890,60.000 207.818 C 60.000 207.537,59.640 206.850,59.200 206.291 C 58.569 205.488,58.400 204.668,58.400 202.400 C 58.400 200.132,58.569 199.312,59.200 198.509 C 59.640 197.950,60.000 197.258,60.000 196.971 C 60.000 196.205,62.840 193.624,64.000 193.337 C 64.550 193.201,65.213 192.922,65.474 192.717 C 66.705 191.750,71.994 191.668,128.600 191.732 C 185.417 191.796,189.059 191.842,189.989 192.500 M120.443 228.298 C 125.762 231.058,128.519 238.180,125.671 241.801 C 125.192 242.410,124.800 243.120,124.800 243.379 C 124.800 243.907,122.741 246.000,122.222 246.000 C 122.039 246.000,121.678 246.288,121.420 246.640 C 120.554 247.825,117.483 247.965,92.600 247.959 C 67.297 247.952,64.174 247.812,63.527 246.655 C 63.325 246.295,62.944 246.000,62.680 246.000 C 62.215 246.000,60.000 243.507,60.000 242.984 C 60.000 242.842,59.640 242.269,59.200 241.709 C 56.440 238.200,59.504 230.704,64.749 228.132 L 66.600 227.225 92.463 227.213 L 118.326 227.200 120.443 228.298 M268.984 265.300 C 268.879 265.575,268.840 279.930,268.897 297.200 L 269.000 328.600 324.400 328.600 L 379.800 328.600 379.910 297.600 C 379.971 280.550,379.922 266.195,379.803 265.700 L 379.585 264.800 324.380 264.800 C 280.584 264.800,269.135 264.903,268.984 265.300 " stroke="none" fill="#fbfbfb" fill-rule="evenodd"></path><path id="path2" d="M24.707 50.226 C 24.582 50.352,23.156 50.637,21.539 50.860 C 19.923 51.082,18.039 51.610,17.353 52.032 C 16.667 52.455,15.812 52.800,15.453 52.800 C 15.094 52.800,14.477 53.123,14.083 53.517 C 13.688 53.912,12.788 54.473,12.083 54.766 C 11.377 55.058,10.800 55.461,10.800 55.661 C 10.800 55.861,10.485 56.140,10.100 56.280 C 8.586 56.831,2.800 63.667,2.800 64.905 C 2.800 65.108,2.440 65.731,2.000 66.291 C 1.560 66.850,1.200 67.829,1.200 68.466 C 1.200 69.127,0.942 69.724,0.600 69.855 C -0.132 70.136,-0.230 72.142,0.500 71.903 C 0.775 71.813,1.155 71.033,1.345 70.170 C 2.790 63.590,9.052 56.422,16.000 53.396 C 16.770 53.060,17.959 52.505,18.643 52.161 C 21.150 50.900,30.124 50.828,187.200 50.821 C 365.932 50.813,355.026 50.584,359.954 54.451 C 360.479 54.863,361.155 55.200,361.457 55.200 C 361.759 55.200,363.606 56.783,365.561 58.719 C 369.420 62.538,370.238 63.805,372.451 69.400 L 373.400 71.800 373.400 112.400 L 373.400 153.000 372.072 154.900 C 371.341 155.945,370.559 156.800,370.335 156.800 C 370.110 156.800,369.495 157.139,368.969 157.553 C 366.320 159.637,360.466 158.907,357.571 156.133 C 354.638 153.322,354.400 152.130,354.400 140.253 C 354.400 130.949,354.359 130.406,353.626 130.014 C 352.321 129.316,20.625 129.447,20.045 130.146 C 19.710 130.549,19.619 150.443,19.696 206.305 L 19.800 281.919 21.422 283.832 C 24.506 287.471,14.308 287.134,122.480 287.169 C 226.829 287.203,220.999 287.060,223.803 289.645 C 229.881 295.248,226.762 305.373,218.705 306.189 C 217.327 306.329,172.280 306.388,118.600 306.321 L 21.000 306.200 18.512 305.100 C 17.144 304.495,15.844 304.000,15.624 304.000 C 13.278 304.000,3.200 294.096,3.200 291.790 C 3.200 291.610,2.926 291.160,2.590 290.789 C 2.255 290.419,1.786 289.009,1.547 287.658 C 1.261 286.031,0.926 285.200,0.557 285.200 C -0.165 285.200,-0.178 287.046,0.543 287.323 C 0.841 287.437,1.189 288.305,1.316 289.251 C 1.443 290.198,1.803 291.159,2.115 291.388 C 2.428 291.616,2.825 292.252,2.998 292.802 C 3.341 293.890,4.488 295.541,5.900 296.977 C 6.395 297.480,6.800 298.096,6.800 298.346 C 6.800 298.596,6.942 298.800,7.116 298.800 C 7.290 298.800,8.235 299.534,9.216 300.430 C 10.197 301.327,11.540 302.341,12.200 302.685 C 12.860 303.028,13.544 303.554,13.720 303.854 C 13.896 304.154,14.348 304.400,14.726 304.400 C 15.103 304.400,16.073 304.754,16.881 305.187 C 18.227 305.909,19.801 306.283,25.400 307.210 C 29.256 307.849,216.815 307.678,218.829 307.033 C 219.803 306.722,221.052 306.369,221.604 306.250 C 222.914 305.967,226.400 302.568,226.400 301.573 C 226.400 301.148,226.566 300.800,226.769 300.800 C 228.075 300.800,228.311 294.648,227.058 293.264 C 226.696 292.864,226.400 292.258,226.400 291.916 C 226.400 291.131,222.804 287.601,222.000 287.598 C 221.670 287.596,220.860 287.281,220.200 286.898 C 219.070 286.241,213.293 286.188,121.570 286.000 L 24.140 285.800 22.870 284.601 C 22.171 283.942,21.600 283.236,21.600 283.033 C 21.600 282.829,21.285 282.315,20.900 281.890 C 20.239 281.160,20.194 276.882,20.096 205.758 L 19.992 130.400 186.796 130.400 L 353.600 130.400 353.600 140.779 C 353.600 150.834,353.629 151.212,354.518 152.884 C 355.662 155.035,357.245 157.200,357.675 157.200 C 357.854 157.200,358.316 157.515,358.702 157.900 C 359.787 158.982,364.204 159.832,365.781 159.261 C 366.482 159.008,367.440 158.800,367.908 158.800 C 368.376 158.800,369.244 158.350,369.838 157.800 C 370.431 157.250,371.026 156.800,371.158 156.800 C 371.291 156.800,371.890 156.186,372.489 155.435 C 374.798 152.541,374.839 151.730,374.684 112.319 C 374.537 75.027,374.383 71.458,372.797 68.498 C 372.359 67.681,372.000 66.758,372.000 66.447 C 372.000 65.742,369.639 62.154,368.068 60.473 C 367.420 59.779,366.786 58.939,366.658 58.606 C 366.530 58.273,366.258 58.000,366.055 58.000 C 365.851 58.000,365.095 57.450,364.375 56.777 C 362.648 55.164,359.066 52.800,358.348 52.800 C 358.034 52.800,357.348 52.499,356.823 52.131 C 354.031 50.176,361.519 50.264,187.368 50.126 C 98.031 50.055,24.833 50.100,24.707 50.226 M25.127 70.875 C 23.394 71.336,21.208 73.333,20.268 75.314 C 19.590 76.743,19.203 107.701,19.843 109.367 C 20.064 109.943,35.152 110.000,186.853 110.000 L 353.620 110.000 354.010 108.974 C 354.562 107.522,354.516 80.130,353.956 76.914 C 353.423 73.854,351.899 71.978,349.175 71.030 C 347.043 70.287,27.908 70.135,25.127 70.875 M351.495 73.305 L 353.400 75.210 353.526 91.105 C 353.595 99.847,353.542 107.585,353.408 108.300 L 353.164 109.600 186.829 109.600 L 20.493 109.600 20.252 108.700 C 19.818 107.078,19.969 77.320,20.417 76.326 C 21.594 73.713,23.472 71.820,25.211 71.493 C 25.755 71.390,98.963 71.328,187.895 71.353 L 349.589 71.400 351.495 73.305 M65.729 156.275 C 65.250 156.370,64.643 156.707,64.380 157.024 C 64.117 157.341,63.540 157.600,63.098 157.600 C 58.819 157.600,55.424 169.881,58.951 172.600 C 59.236 172.820,59.685 173.405,59.949 173.900 C 60.212 174.395,60.627 174.800,60.870 174.800 C 61.113 174.800,61.528 175.095,61.792 175.457 C 63.332 177.563,62.995 177.552,126.705 177.577 C 191.483 177.602,189.791 177.664,192.078 175.208 C 192.492 174.764,193.008 174.400,193.224 174.400 C 193.440 174.400,193.831 173.905,194.093 173.300 C 194.354 172.695,194.890 171.771,195.284 171.246 C 196.532 169.583,196.290 163.849,194.884 161.776 C 193.441 159.648,191.326 157.600,190.572 157.600 C 190.242 157.600,189.491 157.285,188.904 156.900 C 187.893 156.238,68.950 155.634,65.729 156.275 M189.229 157.806 C 196.643 160.340,197.813 170.209,191.261 174.943 L 189.521 176.200 126.661 176.200 L 63.800 176.200 62.100 175.029 C 61.165 174.385,60.400 173.737,60.400 173.590 C 60.400 173.443,60.052 172.921,59.627 172.431 C 56.051 168.308,58.768 159.496,64.136 157.804 C 66.817 156.958,186.756 156.960,189.229 157.806 M320.200 169.249 C 319.100 169.437,316.612 169.779,314.671 170.010 C 312.671 170.248,310.507 170.770,309.677 171.215 C 308.871 171.647,307.738 172.000,307.160 172.000 C 306.581 172.000,305.650 172.360,305.091 172.800 C 304.531 173.240,303.742 173.603,303.337 173.606 C 302.932 173.609,302.150 173.874,301.600 174.195 C 301.050 174.515,300.150 175.008,299.600 175.291 C 297.351 176.444,294.800 178.096,294.800 178.399 C 294.800 178.576,294.260 178.910,293.600 179.140 C 292.940 179.370,292.400 179.736,292.400 179.952 C 292.400 180.169,292.085 180.448,291.700 180.572 C 290.201 181.056,282.000 189.675,282.000 190.767 C 282.000 191.019,281.746 191.322,281.437 191.441 C 281.127 191.560,280.655 192.185,280.388 192.829 C 280.121 193.473,279.767 194.000,279.600 194.000 C 279.433 194.000,279.062 194.585,278.776 195.300 C 278.489 196.015,277.927 197.029,277.527 197.554 C 277.127 198.079,276.800 198.912,276.800 199.405 C 276.800 199.898,276.531 200.525,276.203 200.798 C 275.874 201.070,275.419 202.037,275.191 202.947 C 274.963 203.856,274.509 205.084,274.181 205.675 C 273.853 206.266,273.426 207.976,273.232 209.475 C 273.038 210.974,272.645 212.740,272.358 213.400 C 271.976 214.279,271.778 218.454,271.618 229.000 L 271.400 243.400 263.800 243.624 C 256.067 243.851,253.223 244.351,252.245 245.656 C 252.000 245.982,251.481 246.369,251.091 246.516 C 250.701 246.662,250.265 247.087,250.121 247.460 C 249.978 247.834,249.559 248.441,249.191 248.809 C 246.829 251.171,246.790 343.930,249.150 344.717 C 249.407 344.802,249.888 345.396,250.219 346.036 C 250.550 346.676,251.043 347.200,251.314 347.200 C 251.585 347.200,252.022 347.543,252.283 347.961 C 252.567 348.416,253.451 348.837,254.479 349.007 C 255.426 349.163,256.400 349.451,256.644 349.648 C 257.548 350.375,391.117 349.882,393.464 349.142 C 395.952 348.358,398.248 346.612,398.773 345.105 C 398.985 344.497,399.348 344.000,399.579 344.000 C 399.811 344.000,400.000 343.730,400.000 343.400 C 400.000 342.322,399.232 342.768,398.450 344.300 C 395.795 349.501,400.454 349.194,324.200 349.194 C 247.947 349.194,253.126 349.526,249.790 344.421 L 248.600 342.600 248.600 296.794 L 248.600 250.988 249.885 249.047 C 252.519 245.072,254.720 244.400,265.119 244.400 C 273.187 244.400,272.400 245.884,272.400 230.681 C 272.400 223.986,272.573 217.599,272.783 216.488 C 272.994 215.376,273.344 213.051,273.561 211.322 C 273.778 209.592,274.234 207.643,274.575 206.989 C 274.916 206.335,275.196 205.422,275.198 204.960 C 275.199 204.497,275.650 203.273,276.200 202.238 C 276.750 201.204,277.200 200.184,277.200 199.972 C 277.200 199.448,281.157 192.460,281.958 191.570 C 282.311 191.178,282.792 190.617,283.028 190.323 C 287.031 185.321,295.508 177.600,296.997 177.600 C 297.260 177.600,297.787 177.256,298.167 176.836 C 298.548 176.416,299.326 175.955,299.898 175.811 C 300.469 175.668,301.380 175.202,301.922 174.775 C 302.464 174.349,303.294 174.000,303.765 174.000 C 304.236 174.000,305.035 173.711,305.540 173.357 C 306.044 173.004,307.389 172.474,308.529 172.179 C 309.668 171.885,311.542 171.375,312.693 171.046 C 317.863 169.571,332.870 169.901,337.695 171.597 C 338.952 172.039,340.264 172.400,340.611 172.400 C 341.219 172.400,341.716 172.622,346.300 174.939 C 347.455 175.522,348.642 176.000,348.938 176.000 C 349.234 176.000,349.802 176.360,350.200 176.800 C 350.598 177.240,351.138 177.600,351.400 177.600 C 351.662 177.600,352.198 177.955,352.591 178.390 C 352.984 178.824,353.665 179.294,354.104 179.433 C 355.736 179.951,363.579 187.719,365.916 191.132 C 368.451 194.835,371.600 200.507,371.600 201.370 C 371.600 201.613,371.947 202.460,372.372 203.252 C 372.796 204.044,373.273 205.391,373.431 206.246 C 373.590 207.101,374.073 208.790,374.505 210.000 C 375.218 211.998,375.309 213.614,375.490 227.600 C 375.733 246.365,374.816 244.400,383.329 244.400 C 393.758 244.400,396.382 245.245,398.432 249.262 C 399.284 250.933,400.000 251.270,400.000 250.000 C 400.000 249.556,399.733 249.200,399.400 249.200 C 399.070 249.200,398.800 248.921,398.800 248.580 C 398.800 247.682,396.036 245.277,394.400 244.752 C 393.630 244.505,392.829 244.145,392.620 243.952 C 392.411 243.758,388.982 243.600,385.000 243.600 C 379.902 243.600,377.618 243.458,377.280 243.120 C 376.932 242.772,376.800 239.830,376.800 232.393 C 376.800 226.758,376.627 221.169,376.415 219.973 C 376.203 218.778,375.857 215.854,375.645 213.476 C 375.431 211.063,375.010 208.766,374.694 208.276 C 374.382 207.794,374.007 206.513,373.861 205.429 C 373.715 204.345,373.344 203.175,373.035 202.829 C 372.727 202.483,372.276 201.456,372.034 200.547 C 371.792 199.637,371.343 198.685,371.036 198.430 C 370.730 198.176,370.356 197.480,370.207 196.884 C 370.057 196.288,369.590 195.478,369.168 195.084 C 368.745 194.691,368.400 194.141,368.400 193.862 C 368.400 193.398,367.521 192.039,365.703 189.692 C 364.168 187.711,357.315 180.800,356.886 180.800 C 356.634 180.800,356.235 180.440,356.000 180.000 C 355.765 179.560,355.330 179.200,355.035 179.200 C 354.740 179.200,354.251 178.902,353.949 178.538 C 353.647 178.174,352.815 177.632,352.100 177.333 C 351.385 177.034,350.800 176.626,350.800 176.426 C 350.800 176.226,350.125 175.845,349.300 175.580 C 348.475 175.316,347.530 174.866,347.200 174.581 C 346.870 174.296,346.060 173.931,345.400 173.770 C 344.740 173.609,343.771 173.145,343.246 172.739 C 342.721 172.333,341.819 172.000,341.240 172.000 C 340.662 172.000,339.532 171.648,338.729 171.218 C 337.865 170.755,335.746 170.263,333.535 170.012 C 331.481 169.779,328.900 169.422,327.800 169.218 C 325.407 168.775,322.913 168.785,320.200 169.249 M319.400 189.811 C 318.520 190.101,317.253 190.352,316.585 190.369 C 315.916 190.386,314.684 190.750,313.846 191.177 C 313.008 191.604,311.812 192.066,311.189 192.203 C 310.565 192.339,309.841 192.710,309.579 193.026 C 309.317 193.342,308.899 193.603,308.651 193.607 C 307.974 193.618,304.837 195.829,302.800 197.729 C 299.297 200.998,297.024 204.034,295.409 207.600 C 295.060 208.370,294.528 209.450,294.226 210.000 C 293.924 210.550,293.544 211.900,293.381 213.000 C 293.219 214.100,292.842 215.698,292.543 216.550 C 292.130 217.729,292.000 221.106,292.000 230.640 L 292.000 243.179 293.180 243.790 C 295.166 244.817,354.404 244.701,355.338 243.669 C 357.023 241.807,356.064 215.287,354.136 210.400 C 351.356 203.356,343.539 194.000,340.434 194.000 C 340.255 194.000,339.679 193.679,339.154 193.288 C 335.221 190.350,323.841 188.348,319.400 189.811 M333.814 191.556 C 334.680 192.020,335.783 192.400,336.266 192.400 C 336.748 192.400,337.419 192.677,337.757 193.015 C 338.095 193.353,339.008 193.895,339.786 194.220 C 340.564 194.545,341.200 194.966,341.200 195.157 C 341.200 195.347,341.724 195.720,342.364 195.985 C 343.694 196.536,347.318 200.035,348.800 202.201 C 349.350 203.004,350.205 204.124,350.700 204.689 C 351.195 205.254,351.600 206.023,351.600 206.396 C 351.600 206.770,351.960 207.402,352.400 207.800 C 352.840 208.198,353.200 208.998,353.200 209.577 C 353.200 210.157,353.595 211.344,354.078 212.215 C 354.930 213.751,354.962 214.256,355.109 228.500 L 355.261 243.200 324.530 243.194 C 307.629 243.191,293.620 243.056,293.400 242.894 C 292.962 242.572,293.321 215.517,293.791 213.400 C 293.938 212.740,294.386 211.570,294.786 210.800 C 295.186 210.030,295.637 208.815,295.788 208.100 C 295.940 207.385,296.227 206.800,296.426 206.800 C 296.626 206.800,297.034 206.215,297.333 205.500 C 297.632 204.785,298.174 203.953,298.538 203.651 C 298.902 203.349,299.200 202.856,299.200 202.554 C 299.200 202.253,299.560 201.782,300.000 201.507 C 300.440 201.232,300.804 200.826,300.809 200.604 C 300.813 200.382,301.467 199.660,302.261 199.000 C 303.056 198.340,304.074 197.395,304.525 196.900 C 304.976 196.405,305.554 196.000,305.810 196.000 C 306.066 196.000,306.602 195.640,307.000 195.200 C 307.398 194.760,307.942 194.400,308.208 194.400 C 308.474 194.400,309.152 194.038,309.714 193.596 C 310.275 193.155,311.335 192.683,312.068 192.548 C 312.800 192.413,313.850 192.015,314.400 191.663 C 316.797 190.129,331.006 190.051,333.814 191.556 M67.074 192.004 C 66.455 192.191,65.735 192.512,65.474 192.717 C 65.213 192.922,64.550 193.201,64.000 193.337 C 62.840 193.624,60.000 196.205,60.000 196.971 C 60.000 197.258,59.640 197.950,59.200 198.509 C 58.569 199.312,58.400 200.132,58.400 202.400 C 58.400 204.668,58.569 205.488,59.200 206.291 C 59.640 206.850,60.000 207.537,60.000 207.818 C 60.000 208.890,63.578 211.753,65.701 212.380 C 68.936 213.336,187.192 213.314,190.208 212.358 C 192.373 211.671,195.998 208.719,196.003 207.638 C 196.004 207.287,196.363 206.460,196.800 205.800 C 198.988 202.496,195.156 193.200,191.606 193.200 C 191.260 193.200,190.533 192.885,189.989 192.500 C 188.900 191.730,69.574 191.248,67.074 192.004 M189.600 193.224 C 197.123 195.578,199.116 204.416,193.337 209.798 C 190.757 212.200,195.393 212.054,126.160 211.919 L 64.920 211.800 62.760 209.947 C 56.475 204.557,58.388 195.449,66.291 193.140 C 70.243 191.985,185.893 192.064,189.600 193.224 M64.749 228.132 C 59.504 230.704,56.440 238.200,59.200 241.709 C 59.640 242.269,60.000 242.842,60.000 242.984 C 60.000 243.507,62.215 246.000,62.680 246.000 C 62.944 246.000,63.325 246.295,63.527 246.655 C 64.174 247.812,67.297 247.952,92.600 247.959 C 117.483 247.965,120.554 247.825,121.420 246.640 C 121.678 246.288,122.039 246.000,122.222 246.000 C 122.741 246.000,124.800 243.907,124.800 243.379 C 124.800 243.120,125.192 242.410,125.671 241.801 C 128.519 238.180,125.762 231.058,120.443 228.298 L 118.326 227.200 92.463 227.213 L 66.600 227.225 64.749 228.132 M120.000 228.859 C 127.575 232.506,128.002 241.376,120.835 246.210 L 119.069 247.400 95.435 247.531 C 62.980 247.711,62.943 247.706,60.013 241.792 C 57.931 237.591,60.615 229.200,64.040 229.200 C 64.282 229.200,65.046 228.946,65.740 228.636 C 66.433 228.326,67.270 227.977,67.600 227.861 C 67.930 227.746,79.360 227.685,93.000 227.726 L 117.800 227.800 120.000 228.859 M268.623 264.489 C 267.583 265.974,267.687 327.993,268.731 328.938 C 269.979 330.067,379.388 329.944,379.993 328.813 C 380.735 327.427,380.353 264.467,379.600 263.991 C 379.230 263.757,358.001 263.610,324.123 263.606 L 269.245 263.600 268.623 264.489 M379.803 265.700 C 379.922 266.195,379.971 280.550,379.910 297.600 L 379.800 328.600 324.400 328.600 L 269.000 328.600 268.897 297.200 C 268.840 279.930,268.879 265.575,268.984 265.300 C 269.135 264.903,280.584 264.800,324.380 264.800 L 379.585 264.800 379.803 265.700 " stroke="none" fill="#a0a0a0" fill-rule="evenodd"></path><path id="path3" d="M21.800 51.591 C 20.700 51.746,18.990 52.238,18.000 52.683 C 17.010 53.128,15.930 53.603,15.600 53.738 C 15.016 53.977,13.319 55.011,10.961 56.566 C 7.434 58.891,1.619 67.108,1.596 69.800 C 1.584 71.238,1.118 72.400,0.553 72.400 C 0.230 72.400,0.000 72.815,0.000 73.400 C 0.000 76.090,1.562 73.895,2.037 70.537 C 2.264 68.934,2.657 67.688,2.995 67.499 C 3.310 67.322,3.688 66.539,3.834 65.757 C 3.981 64.976,4.355 64.239,4.665 64.120 C 4.976 64.000,5.481 63.418,5.787 62.824 C 6.727 61.008,12.489 55.600,13.486 55.600 C 13.683 55.600,14.455 55.150,15.200 54.600 C 15.945 54.050,16.946 53.600,17.424 53.600 C 17.901 53.600,18.807 53.195,19.436 52.700 L 20.580 51.800 186.790 51.800 L 353.000 51.800 354.400 52.651 C 355.170 53.120,356.475 53.623,357.300 53.769 C 358.125 53.916,358.800 54.217,358.800 54.439 C 358.800 54.660,359.399 55.091,360.132 55.397 C 360.864 55.703,361.696 56.234,361.981 56.577 C 362.265 56.920,362.693 57.200,362.932 57.200 C 363.787 57.200,369.200 63.366,369.200 64.340 C 369.200 64.508,369.650 65.255,370.200 66.000 C 370.750 66.745,371.200 67.794,371.200 68.330 C 371.200 68.867,371.605 69.957,372.100 70.753 L 373.000 72.200 373.000 112.258 C 373.000 149.215,372.948 152.373,372.328 153.059 C 371.958 153.467,371.468 154.296,371.238 154.901 C 371.008 155.505,370.580 156.000,370.288 156.000 C 369.995 156.000,369.145 156.450,368.400 157.000 C 367.329 157.790,366.568 158.000,364.772 158.000 C 361.210 158.000,360.287 157.665,357.968 155.535 L 355.800 153.542 355.673 141.978 L 355.545 130.415 354.519 129.607 C 353.260 128.618,20.667 128.293,19.680 129.280 C 19.310 129.650,19.200 147.245,19.200 206.044 L 19.200 282.328 20.769 284.313 C 21.708 285.500,22.792 286.411,23.469 286.580 C 24.091 286.735,24.881 287.115,25.225 287.425 C 25.757 287.904,40.265 288.003,123.520 288.094 L 221.191 288.200 223.233 290.242 C 226.845 293.855,227.143 299.817,223.862 302.821 C 223.168 303.457,222.272 304.297,221.871 304.688 C 221.177 305.367,216.444 305.400,120.662 305.400 L 20.180 305.400 19.036 304.500 C 18.407 304.005,17.383 303.600,16.762 303.600 C 16.140 303.600,15.309 303.262,14.916 302.850 C 14.522 302.437,13.795 301.975,13.300 301.823 C 12.805 301.671,12.400 301.383,12.400 301.183 C 12.400 300.984,11.863 300.543,11.206 300.203 C 9.671 299.409,6.508 296.113,5.572 294.330 C 5.303 293.819,4.839 293.256,4.542 293.080 C 4.244 292.904,4.000 292.433,4.000 292.034 C 4.000 291.635,3.637 290.846,3.192 290.281 C 2.678 289.627,2.256 288.224,2.028 286.411 C 1.690 283.719,1.138 282.400,0.351 282.400 C -0.234 282.400,-0.042 284.081,0.598 284.556 C 0.927 284.800,1.393 286.080,1.633 287.400 C 1.874 288.720,2.324 290.084,2.635 290.431 C 2.946 290.779,3.200 291.238,3.200 291.452 C 3.200 293.984,13.486 304.000,16.087 304.000 C 16.497 304.000,17.590 304.405,18.516 304.900 L 20.200 305.800 120.885 305.800 L 221.569 305.800 223.558 303.842 C 227.895 299.570,228.079 294.624,224.062 290.305 C 221.373 287.414,228.492 287.606,123.400 287.589 L 27.400 287.574 24.833 286.487 C 22.788 285.621,21.994 285.014,20.932 283.503 L 19.598 281.606 19.699 205.703 L 19.800 129.800 186.200 129.691 C 277.720 129.631,353.005 129.679,353.500 129.799 L 354.400 130.015 354.400 139.229 C 354.400 155.003,356.199 158.401,364.550 158.399 C 366.237 158.399,367.436 158.155,368.400 157.616 C 369.170 157.185,370.070 156.722,370.400 156.586 C 370.730 156.450,371.540 155.497,372.200 154.469 L 373.400 152.600 373.400 112.200 L 373.400 71.800 372.500 70.116 C 372.005 69.190,371.600 68.089,371.600 67.670 C 371.600 67.251,371.240 66.450,370.800 65.891 C 370.360 65.331,369.997 64.722,369.993 64.537 C 369.979 63.890,367.786 60.973,365.969 59.185 C 362.911 56.175,360.279 54.501,355.200 52.337 L 353.000 51.400 188.400 51.354 C 97.870 51.329,22.900 51.436,21.800 51.591 M25.400 70.000 C 24.740 70.437,23.907 70.796,23.548 70.797 C 23.190 70.799,22.065 71.714,21.048 72.831 L 19.200 74.862 19.200 92.417 C 19.200 109.384,19.226 109.986,19.976 110.387 C 21.557 111.233,353.835 110.736,354.686 109.886 C 355.992 108.581,355.971 80.465,354.661 76.346 C 353.725 73.402,351.836 70.800,350.635 70.800 C 350.389 70.800,349.516 70.440,348.696 70.000 C 346.346 68.741,27.302 68.741,25.400 70.000 M349.136 70.812 C 354.172 72.726,354.332 73.413,354.369 93.292 L 354.400 109.585 353.500 109.801 C 353.005 109.921,277.720 109.969,186.200 109.909 L 19.800 109.800 19.696 92.594 L 19.592 75.388 21.324 73.419 C 22.536 72.041,23.649 71.242,25.028 70.756 C 28.380 69.576,346.028 69.631,349.136 70.812 M64.600 157.836 C 55.870 160.179,56.377 174.327,65.252 176.010 C 67.778 176.489,185.821 176.516,188.291 176.038 C 197.536 174.249,197.730 160.191,188.542 157.831 C 185.128 156.954,67.868 156.959,64.600 157.836 M188.000 158.424 C 189.892 158.728,190.849 159.108,191.516 159.821 C 192.020 160.359,192.586 160.800,192.773 160.800 C 192.960 160.800,193.237 161.295,193.389 161.900 C 193.541 162.505,194.033 163.343,194.482 163.762 C 195.487 164.699,195.338 169.467,194.286 170.056 C 193.958 170.240,193.580 170.824,193.447 171.356 C 193.313 171.887,192.321 173.061,191.242 173.965 L 189.280 175.607 126.511 175.504 C 67.345 175.406,63.703 175.360,63.043 174.700 C 62.658 174.315,62.080 174.000,61.759 174.000 C 61.438 174.000,61.058 173.685,60.914 173.300 C 60.771 172.915,60.282 172.090,59.827 171.466 C 59.128 170.508,59.002 169.754,59.013 166.605 L 59.026 162.877 61.016 160.834 C 62.565 159.244,63.404 158.713,64.803 158.440 C 67.457 157.920,184.770 157.905,188.000 158.424 M318.200 170.453 C 314.996 170.693,312.777 171.077,311.526 171.606 C 310.495 172.043,309.232 172.400,308.720 172.400 C 308.207 172.400,307.161 172.732,306.394 173.139 C 305.627 173.545,304.474 174.006,303.832 174.163 C 303.189 174.321,302.220 174.798,301.678 175.225 C 301.136 175.651,300.427 176.000,300.104 176.000 C 299.780 176.000,298.981 176.450,298.327 177.000 C 297.673 177.550,296.910 178.000,296.631 178.000 C 296.352 178.000,295.798 178.360,295.400 178.800 C 295.002 179.240,294.503 179.600,294.292 179.600 C 293.781 179.600,289.454 183.356,287.422 185.563 C 286.530 186.532,285.614 187.522,285.386 187.763 C 283.686 189.557,280.800 193.339,280.800 193.772 C 280.800 194.063,280.557 194.504,280.260 194.750 C 279.964 194.996,279.139 196.413,278.429 197.899 C 277.718 199.384,276.816 201.230,276.424 202.000 C 276.032 202.770,275.581 204.114,275.421 204.986 C 275.262 205.859,274.880 207.059,274.572 207.655 C 273.533 209.664,273.082 215.338,272.840 229.439 C 272.651 240.476,272.483 243.620,272.051 244.139 C 271.578 244.708,270.496 244.801,264.251 244.810 C 254.250 244.823,252.744 245.270,250.124 249.000 L 249.000 250.600 249.000 296.800 L 249.000 343.000 250.053 344.486 C 253.379 349.182,247.170 348.835,325.611 348.709 L 393.821 348.600 395.772 347.001 C 396.845 346.122,397.971 344.809,398.274 344.084 C 398.577 343.359,399.090 342.664,399.413 342.540 C 399.736 342.416,400.000 342.049,400.000 341.724 C 400.000 340.621,399.003 341.433,398.124 343.252 C 397.642 344.249,396.387 345.770,395.335 346.632 L 393.421 348.200 324.211 348.200 L 255.000 348.200 253.562 347.100 C 252.771 346.495,251.916 346.000,251.662 346.000 C 251.408 346.000,251.200 345.765,251.200 345.478 C 251.200 345.190,250.750 344.345,250.200 343.600 L 249.200 342.245 249.200 296.776 C 249.200 253.035,249.228 251.272,249.945 250.354 C 250.355 249.829,250.811 249.040,250.960 248.600 C 251.754 246.242,253.483 245.816,263.136 245.600 C 274.824 245.338,273.597 247.042,273.609 231.056 C 273.621 215.987,274.022 210.042,275.178 207.815 C 275.630 206.944,276.000 205.577,276.000 204.777 C 276.000 203.832,276.280 203.071,276.800 202.600 C 277.240 202.202,277.600 201.478,277.600 200.992 C 277.600 200.506,277.949 199.664,278.375 199.122 C 278.802 198.580,279.268 197.669,279.411 197.098 C 279.555 196.526,280.016 195.748,280.436 195.367 C 280.856 194.987,281.200 194.441,281.200 194.154 C 281.200 192.044,294.351 179.231,297.563 178.212 C 298.024 178.066,298.587 177.598,298.814 177.173 C 299.042 176.748,299.648 176.400,300.160 176.400 C 300.673 176.400,301.521 176.063,302.046 175.652 C 302.571 175.241,303.630 174.771,304.400 174.608 C 305.170 174.444,306.090 174.056,306.445 173.744 C 306.799 173.431,308.127 173.007,309.396 172.801 C 310.664 172.594,312.174 172.107,312.751 171.718 C 314.496 170.541,333.940 170.726,336.185 171.942 C 337.056 172.414,338.424 172.800,339.223 172.800 C 340.103 172.800,341.042 173.116,341.600 173.600 C 342.107 174.040,342.791 174.400,343.119 174.400 C 343.447 174.400,345.060 175.075,346.702 175.900 C 351.070 178.094,351.606 178.406,352.442 179.242 C 352.859 179.659,353.425 180.001,353.700 180.002 C 354.418 180.004,358.717 183.878,362.201 187.661 C 363.597 189.177,366.213 192.753,367.384 194.746 C 367.595 195.106,368.065 195.853,368.428 196.408 C 368.791 196.962,369.224 197.862,369.391 198.408 C 369.558 198.953,369.960 199.702,370.283 200.071 C 370.607 200.441,371.046 201.518,371.259 202.465 C 371.472 203.413,371.884 204.461,372.175 204.794 C 372.466 205.127,372.830 206.480,372.984 207.800 C 373.138 209.120,373.565 210.650,373.932 211.200 C 374.519 212.078,374.624 214.125,374.800 228.000 C 374.910 236.690,375.147 244.095,375.326 244.455 C 375.813 245.436,377.345 245.600,386.009 245.600 L 393.918 245.600 395.704 247.198 C 396.764 248.147,397.770 249.529,398.178 250.598 C 398.832 252.311,400.000 253.081,400.000 251.800 C 400.000 251.470,399.824 251.200,399.608 251.200 C 399.393 251.200,398.843 250.469,398.388 249.576 C 396.304 245.492,394.259 244.800,384.269 244.800 C 374.698 244.800,375.777 246.821,375.475 228.321 C 375.232 213.353,375.203 212.928,374.213 209.885 C 373.656 208.171,373.200 206.416,373.200 205.983 C 373.200 205.551,372.840 204.525,372.400 203.704 C 371.960 202.884,371.600 201.999,371.600 201.738 C 371.600 201.245,369.246 196.581,368.073 194.749 C 365.226 190.304,363.688 188.424,359.523 184.300 C 356.913 181.715,354.594 179.600,354.369 179.600 C 354.145 179.600,352.935 178.921,351.681 178.092 C 348.164 175.767,340.995 172.405,339.525 172.391 C 339.016 172.386,337.848 172.041,336.928 171.623 C 335.367 170.915,333.866 170.734,325.400 170.235 C 324.080 170.157,320.840 170.255,318.200 170.453 M319.200 188.984 C 318.650 189.290,317.173 189.661,315.918 189.807 C 314.570 189.965,313.277 190.386,312.757 190.837 C 312.273 191.257,311.479 191.600,310.993 191.600 C 310.506 191.600,309.679 191.929,309.154 192.332 C 308.629 192.734,307.867 193.186,307.460 193.335 C 305.878 193.914,298.400 200.715,298.400 201.575 C 298.400 201.793,298.052 202.158,297.627 202.386 C 297.202 202.613,296.727 203.204,296.572 203.700 C 296.417 204.195,295.967 205.013,295.573 205.519 C 295.178 206.024,294.741 206.957,294.602 207.591 C 294.463 208.226,294.099 208.952,293.794 209.205 C 293.489 209.458,293.117 210.506,292.968 211.533 C 292.818 212.560,292.404 213.940,292.048 214.600 C 291.152 216.259,291.062 243.469,291.949 244.538 C 292.451 245.144,295.175 245.200,323.979 245.200 L 355.461 245.200 356.330 244.274 C 357.350 243.188,357.715 220.110,356.741 218.290 C 356.489 217.819,356.139 216.011,355.964 214.273 C 355.784 212.484,355.392 210.828,355.060 210.457 C 354.738 210.095,354.271 209.035,354.022 208.100 C 353.773 207.165,353.408 206.400,353.212 206.400 C 353.015 206.400,352.734 205.995,352.587 205.500 C 351.672 202.415,343.888 194.380,340.894 193.430 C 340.460 193.292,339.784 192.824,339.391 192.390 C 338.998 191.955,338.192 191.600,337.600 191.600 C 337.008 191.600,336.221 191.265,335.850 190.856 C 335.403 190.362,334.365 190.027,332.761 189.859 C 331.432 189.720,329.957 189.335,329.483 189.003 C 328.322 188.190,320.654 188.176,319.200 188.984 M328.016 189.358 C 329.217 189.665,331.010 190.043,332.000 190.197 C 334.675 190.613,338.681 192.461,343.000 195.271 C 344.924 196.523,349.621 201.326,350.559 203.000 C 350.929 203.660,351.666 204.920,352.197 205.800 C 352.728 206.680,353.272 207.670,353.406 208.000 C 355.935 214.213,356.014 214.840,356.260 230.412 C 356.450 242.496,356.426 243.053,355.687 243.721 C 354.774 244.548,294.290 244.797,292.765 243.981 C 290.675 242.863,291.989 213.632,294.319 209.383 C 294.555 208.952,295.006 208.060,295.320 207.400 C 297.106 203.647,297.599 202.970,301.480 198.938 C 304.135 196.180,307.326 193.625,308.137 193.607 C 308.322 193.603,308.931 193.240,309.491 192.800 C 310.050 192.360,310.867 192.000,311.307 192.000 C 311.746 192.000,312.667 191.661,313.353 191.247 C 314.039 190.833,315.770 190.276,317.200 190.009 C 318.630 189.741,320.430 189.381,321.200 189.207 C 323.422 188.707,325.661 188.756,328.016 189.358 M66.000 193.464 C 57.180 195.834,57.396 210.176,66.274 211.636 C 68.721 212.038,187.181 212.055,189.600 211.653 C 191.596 211.322,195.600 208.077,195.600 206.791 C 195.600 206.411,195.879 205.313,196.219 204.350 C 197.690 200.193,194.274 194.653,189.468 193.401 C 186.026 192.504,69.349 192.564,66.000 193.464 M193.096 196.105 L 195.400 198.409 195.395 202.616 L 195.390 206.823 193.112 209.011 L 190.835 211.200 127.917 211.193 L 65.000 211.186 63.029 209.338 C 57.825 204.457,59.910 194.886,66.380 193.958 C 67.381 193.814,95.783 193.720,129.496 193.749 L 190.791 193.800 193.096 196.105 M65.400 228.868 C 62.795 229.891,61.316 231.311,60.148 233.911 C 59.185 236.056,58.846 239.734,59.569 240.181 C 59.772 240.306,60.053 240.933,60.194 241.573 C 60.485 242.897,61.820 244.462,63.943 245.967 L 65.400 247.000 91.956 247.108 C 117.856 247.214,118.554 247.197,120.174 246.413 C 124.740 244.202,127.055 238.481,124.988 234.517 C 124.667 233.903,124.404 233.202,124.402 232.959 C 124.397 232.033,121.711 229.762,119.602 228.902 L 117.400 228.004 92.400 228.043 C 68.547 228.080,67.308 228.118,65.400 228.868 M118.692 229.281 C 123.838 230.955,126.209 235.607,124.473 240.628 C 123.654 242.996,122.483 244.610,121.149 245.208 C 120.627 245.443,119.750 245.894,119.200 246.211 C 118.357 246.698,114.146 246.788,92.400 246.788 C 70.654 246.788,66.443 246.698,65.600 246.211 C 65.050 245.894,64.240 245.457,63.800 245.241 C 58.300 242.533,59.530 229.698,65.301 229.582 C 65.796 229.572,66.740 229.317,67.400 229.014 C 69.755 227.936,115.284 228.173,118.692 229.281 M268.294 263.300 C 266.853 264.395,266.800 265.591,266.800 297.195 L 266.800 328.339 267.836 329.569 L 268.871 330.800 324.213 330.800 L 379.555 330.800 380.177 329.911 C 381.130 328.552,381.124 264.381,380.171 263.429 C 379.323 262.581,269.408 262.454,268.294 263.300 M380.157 264.233 C 380.569 265.306,380.424 328.542,380.009 329.200 C 379.347 330.246,269.599 330.304,268.653 329.259 C 267.844 328.364,267.620 265.857,268.421 264.361 C 269.000 263.278,379.742 263.151,380.157 264.233 " stroke="none" fill="#747474" fill-rule="evenodd"></path><path id="path4" d="M106.700 51.100 C 150.975 51.156,223.425 51.156,267.700 51.100 C 311.975 51.044,275.750 50.998,187.200 50.998 C 98.650 50.998,62.425 51.044,106.700 51.100 M21.700 51.476 C 22.085 51.576,22.715 51.576,23.100 51.476 C 23.485 51.375,23.170 51.293,22.400 51.293 C 21.630 51.293,21.315 51.375,21.700 51.476 M106.900 70.300 C 151.065 70.356,223.335 70.356,267.500 70.300 C 311.665 70.244,275.530 70.198,187.200 70.198 C 98.870 70.198,62.735 70.244,106.900 70.300 M373.293 73.600 C 373.293 74.370,373.375 74.685,373.476 74.300 C 373.576 73.915,373.576 73.285,373.476 72.900 C 373.375 72.515,373.293 72.830,373.293 73.600 M363.505 158.683 C 364.002 158.779,364.722 158.775,365.105 158.675 C 365.487 158.575,365.080 158.496,364.200 158.501 C 363.320 158.505,363.007 158.587,363.505 158.683 M58.101 167.000 C 58.105 167.880,58.187 168.193,58.283 167.695 C 58.379 167.198,58.375 166.478,58.275 166.095 C 58.175 165.713,58.096 166.120,58.101 167.000 M320.300 170.282 C 320.795 170.378,321.605 170.378,322.100 170.282 C 322.595 170.187,322.190 170.109,321.200 170.109 C 320.210 170.109,319.805 170.187,320.300 170.282 M326.105 170.287 C 326.714 170.379,327.614 170.377,328.105 170.282 C 328.597 170.187,328.100 170.111,327.000 170.114 C 325.900 170.117,325.497 170.195,326.105 170.287 M314.900 170.676 C 315.285 170.776,315.915 170.776,316.300 170.676 C 316.685 170.575,316.370 170.493,315.600 170.493 C 314.830 170.493,314.515 170.575,314.900 170.676 M287.178 185.500 L 285.800 187.000 287.300 185.622 C 288.696 184.338,288.984 184.000,288.678 184.000 C 288.612 184.000,287.937 184.675,287.178 185.500 M323.300 189.087 C 323.905 189.178,324.895 189.178,325.500 189.087 C 326.105 188.995,325.610 188.920,324.400 188.920 C 323.190 188.920,322.695 188.995,323.300 189.087 M98.100 192.700 C 114.545 192.758,141.455 192.758,157.900 192.700 C 174.345 192.642,160.890 192.595,128.000 192.595 C 95.110 192.595,81.655 192.642,98.100 192.700 M193.400 195.600 C 194.259 196.480,195.052 197.200,195.162 197.200 C 195.272 197.200,194.659 196.480,193.800 195.600 C 192.941 194.720,192.148 194.000,192.038 194.000 C 191.928 194.000,192.541 194.720,193.400 195.600 M61.775 195.700 L 60.600 197.000 61.900 195.825 C 62.615 195.179,63.200 194.594,63.200 194.525 C 63.200 194.216,62.870 194.488,61.775 195.700 M58.901 202.600 C 58.905 203.480,58.987 203.793,59.083 203.295 C 59.179 202.798,59.175 202.078,59.075 201.695 C 58.975 201.313,58.896 201.720,58.901 202.600 M60.400 207.725 C 60.400 207.794,60.985 208.379,61.700 209.025 L 63.000 210.200 61.825 208.900 C 60.730 207.688,60.400 207.416,60.400 207.725 M272.494 230.224 C 272.424 239.733,272.271 243.221,271.900 243.718 C 271.471 244.293,270.399 244.406,264.400 244.505 L 257.400 244.620 264.491 244.710 C 273.747 244.827,272.842 246.431,272.700 230.162 L 272.588 217.400 272.494 230.224 M375.309 219.200 C 375.309 220.190,375.387 220.595,375.482 220.100 C 375.578 219.605,375.578 218.795,375.482 218.300 C 375.387 217.805,375.309 218.210,375.309 219.200 M356.094 231.174 C 356.002 242.699,355.981 242.970,355.111 243.974 L 354.223 245.000 355.317 243.985 L 356.412 242.969 356.300 231.185 L 356.187 219.400 356.094 231.174 M80.100 227.900 C 86.865 227.961,97.935 227.961,104.700 227.900 C 111.465 227.838,105.930 227.788,92.400 227.788 C 78.870 227.788,73.335 227.838,80.100 227.900 M58.901 237.800 C 58.905 238.680,58.987 238.993,59.083 238.495 C 59.179 237.998,59.175 237.278,59.075 236.895 C 58.975 236.513,58.896 236.920,58.901 237.800 M380.500 244.698 C 382.425 244.771,385.575 244.771,387.500 244.698 C 389.425 244.625,387.850 244.565,384.000 244.565 C 380.150 244.565,378.575 244.625,380.500 244.698 M80.300 247.500 C 86.955 247.561,97.845 247.561,104.500 247.500 C 111.155 247.438,105.710 247.388,92.400 247.388 C 79.090 247.388,73.645 247.438,80.300 247.500 M248.593 296.800 C 248.593 320.890,248.641 330.745,248.700 318.700 C 248.759 306.655,248.759 286.945,248.700 274.900 C 248.641 262.855,248.593 272.710,248.593 296.800 M75.132 287.500 C 101.605 287.557,144.805 287.557,171.132 287.500 C 197.459 287.443,175.800 287.397,123.000 287.397 C 70.200 287.397,48.659 287.443,75.132 287.500 M223.800 290.000 C 224.659 290.880,225.452 291.600,225.562 291.600 C 225.672 291.600,225.059 290.880,224.200 290.000 C 223.341 289.120,222.548 288.400,222.438 288.400 C 222.328 288.400,222.941 289.120,223.800 290.000 M224.175 303.300 L 223.000 304.600 224.300 303.425 C 225.015 302.779,225.600 302.194,225.600 302.125 C 225.600 301.816,225.270 302.088,224.175 303.300 M72.732 306.300 C 99.645 306.357,143.565 306.357,170.332 306.300 C 197.099 306.243,175.080 306.197,121.400 306.197 C 67.720 306.197,45.819 306.243,72.732 306.300 M268.562 329.100 L 269.324 330.000 323.962 329.901 L 378.600 329.803 324.030 329.700 C 272.772 329.603,269.409 329.555,268.630 328.899 C 267.801 328.201,267.801 328.201,268.562 329.100 M291.132 349.100 C 309.464 349.158,339.344 349.158,357.532 349.100 C 375.719 349.042,360.720 348.995,324.200 348.995 C 287.680 348.995,272.799 349.042,291.132 349.100 " stroke="none" fill="#7c7c7c" fill-rule="evenodd"></path></g></svg>